<svg xmlns="http://www.w3.org/2000/svg" width="1em" height="1em" viewBox="0 0 80 80"><g fill="none"><path fill="currentColor" fill-opacity=".25" d="M26 23.667a4 4 0 0 1 4-4h29.333a4 4 0 0 1 4 4v6a4 4 0 0 1-4 4H30a4 4 0 0 1-4-4zm0 26.666a4 4 0 0 1 4-4h20a4 4 0 0 1 4 4v6a4 4 0 0 1-4 4H30a4 4 0 0 1-4-4z"/><path stroke="currentColor" stroke-linecap="round" stroke-linejoin="round" d="M16.667 68V12M30 33.667h29.333a4 4 0 0 0 4-4v-6a4 4 0 0 0-4-4H30a4 4 0 0 0-4 4v6a4 4 0 0 0 4 4m0 26.666h20a4 4 0 0 0 4-4v-6a4 4 0 0 0-4-4H30a4 4 0 0 0-4 4v6a4 4 0 0 0 4 4"/></g></svg>