<svg xmlns="http://www.w3.org/2000/svg" width="1em" height="1em" viewBox="0 0 80 80"><g fill="currentColor"><path d="M42.732 27a3 3 0 1 1-6 0zm-6-15a3 3 0 0 1 6 0zm0 15V12h6v15z"/><path stroke="currentColor" stroke-linecap="round" stroke-linejoin="round" stroke-width="3" d="M45.55 27H33.914c-1.174 0-1.762 1.42-.932 2.25l4.63 4.629a3 3 0 0 0 4.242 0l4.628-4.629c.83-.83.243-2.25-.932-2.25"/><path d="M42.732 53a3 3 0 1 0-6 0zm-6 15a3 3 0 0 0 6 0zm0-15v15h6V53z"/><path stroke="currentColor" stroke-linecap="round" stroke-linejoin="round" stroke-width="3" d="M45.55 53H33.914c-1.174 0-1.762-1.42-.932-2.25l4.63-4.629a3 3 0 0 1 4.242 0l4.628 4.629c.83.83.243 2.25-.932 2.25"/></g></svg>