<svg xmlns="http://www.w3.org/2000/svg" width="1em" height="1em" viewBox="0 0 80 80"><g fill="none"><path fill="currentColor" fill-opacity=".25" d="M16 18a2 2 0 0 1 2-2h44a2 2 0 0 1 2 2v44a2 2 0 0 1-2 2H18a2 2 0 0 1-2-2z"/><path fill="currentColor" fill-opacity=".25" d="M46.4 40h4.534c2.093 0 3.12-2.548 1.615-4l-9.53-9.189a4.2 4.2 0 0 0-5.83 0L27.659 36c-1.506 1.452-.477 4 1.615 4H33.6v12.8a1.6 1.6 0 0 0 1.6 1.6h9.6a1.6 1.6 0 0 0 1.6-1.6z"/><path stroke="currentColor" stroke-linecap="round" stroke-linejoin="round" d="M16 18a2 2 0 0 1 2-2h44a2 2 0 0 1 2 2v44a2 2 0 0 1-2 2H18a2 2 0 0 1-2-2z"/><path stroke="currentColor" stroke-linecap="round" stroke-linejoin="round" d="M46.4 40h4.534c2.093 0 3.12-2.548 1.615-4l-9.53-9.189a4.2 4.2 0 0 0-5.83 0L27.659 36c-1.506 1.452-.477 4 1.615 4H33.6v12.8a1.6 1.6 0 0 0 1.6 1.6h9.6a1.6 1.6 0 0 0 1.6-1.6z"/></g></svg>