<svg xmlns="http://www.w3.org/2000/svg" width="1em" height="1em" viewBox="0 0 80 80"><g fill="none"><path fill="currentColor" d="M43 23.241a3 3 0 1 0-6 0zm-6 14.738a3 3 0 1 0 6 0zM43 38a3 3 0 1 0-6 0zm-6 23a3 3 0 0 0 6 0zm0-37.759v14.738h6V23.24zm0 14.76v23h6V38z"/><path stroke="currentColor" stroke-linecap="round" stroke-linejoin="round" stroke-width="6" d="M56 38L42.121 24.121a3 3 0 0 0-4.242 0L24 38"/><path stroke="currentColor" stroke-linecap="round" stroke-width="6" d="M24 15h32"/></g></svg>