<svg xmlns="http://www.w3.org/2000/svg" width="1em" height="1em" viewBox="0 0 80 80"><g fill="none"><path fill="currentColor" fill-opacity=".25" d="M14 22a2 2 0 0 1 2-2h48a2 2 0 1 1 0 4H16a2 2 0 0 1-2-2m0 18a2 2 0 0 1 2-2h48a2 2 0 1 1 0 4H16a2 2 0 0 1-2-2m2 16a2 2 0 1 0 0 4h48a2 2 0 1 0 0-4z"/><path stroke="currentColor" stroke-linecap="round" stroke-linejoin="round" d="M14 22a2 2 0 0 1 2-2h48a2 2 0 1 1 0 4H16a2 2 0 0 1-2-2m0 18a2 2 0 0 1 2-2h48a2 2 0 1 1 0 4H16a2 2 0 0 1-2-2m2 16a2 2 0 1 0 0 4h48a2 2 0 1 0 0-4z"/></g></svg>