<svg xmlns="http://www.w3.org/2000/svg" width="1em" height="1em" viewBox="0 0 80 80"><g fill="none"><path fill="currentColor" fill-rule="evenodd" d="M25 4h4a6 6 0 0 1 6 6v25.406a6 6 0 0 1-.117 1.177l-3.295 16.475A3 3 0 0 0 31 53h-8q-.302 0-.588.058l-3.296-16.475A6 6 0 0 1 19 35.406V10a6 6 0 0 1 6-6" clip-rule="evenodd"/><path fill="currentColor" d="M23 56v20h8V56z"/><path stroke="currentColor" stroke-linecap="round" stroke-linejoin="round" stroke-width="4" d="M32 76H22"/><path fill="currentColor" d="M49.536 28.383a6.928 6.928 0 1 1 6.928 12a6.928 6.928 0 0 1-6.928-12"/></g></svg>