<svg xmlns="http://www.w3.org/2000/svg" width="1em" height="1em" viewBox="0 0 80 80"><g fill="none"><path stroke="currentColor" stroke-linecap="round" stroke-linejoin="round" stroke-width="6" d="M26 72a4 4 0 0 1-4-4V20a4 4 0 0 1 4-4h28a4 4 0 0 1 4 4v48a4 4 0 0 1-4 4z"/><path fill="currentColor" fill-rule="evenodd" d="M54.006 16H25.994A4 4 0 0 0 22 20v48a4 4 0 0 0 4 4h28a4 4 0 0 0 4-4V20a4 4 0 0 0-3.994-4" clip-rule="evenodd"/><path stroke="currentColor" stroke-linecap="round" stroke-linejoin="round" stroke-width="6" d="M32 8h16"/></g></svg>