<svg xmlns="http://www.w3.org/2000/svg" width="1em" height="1em" viewBox="0 0 80 80"><g fill="none"><path fill="currentColor" fill-opacity=".25" d="M32 6a2 2 0 1 0 0 4h16a2 2 0 0 0 0-4z"/><path fill="currentColor" fill-opacity=".25" fill-rule="evenodd" d="M20 20v48a6 6 0 0 0 6 6h28a6 6 0 0 0 6-6V20a6 6 0 0 0-6-6H26a6 6 0 0 0-6 6m34-2H26a2 2 0 0 0-2 2v22h32V20a2 2 0 0 0-2-2M24 68V46h32v22a2 2 0 0 1-2 2H26q-.103 0-.204-.01A2 2 0 0 1 24 68" clip-rule="evenodd"/><path stroke="currentColor" stroke-linecap="round" stroke-linejoin="round" d="M32 6a2 2 0 1 0 0 4h16a2 2 0 0 0 0-4z"/><path stroke="currentColor" stroke-linecap="round" stroke-linejoin="round" d="M20 20v48a6 6 0 0 0 6 6h28a6 6 0 0 0 6-6V20a6 6 0 0 0-6-6H26a6 6 0 0 0-6 6m34-2H26a2 2 0 0 0-2 2v22h32V20a2 2 0 0 0-2-2M24 68V46h32v22a2 2 0 0 1-2 2H26q-.103 0-.204-.01A2 2 0 0 1 24 68" clip-rule="evenodd"/></g></svg>