<svg xmlns="http://www.w3.org/2000/svg" width="1em" height="1em" viewBox="0 0 80 80"><g fill="none"><path fill="currentColor" fill-opacity=".25" d="M26 70a4 4 0 0 1-4-4V18a4 4 0 0 1 4-4h28a4 4 0 0 1 4 4v48a4 4 0 0 1-4 4zm6.5-56a.5.5 0 0 1-.5-.5a3.5 3.5 0 0 1 3.5-3.5h9a3.5 3.5 0 0 1 3.5 3.5a.5.5 0 0 1-.5.5z"/><path stroke="currentColor" stroke-linecap="round" stroke-linejoin="round" d="M26 70a4 4 0 0 1-4-4V18a4 4 0 0 1 4-4h28a4 4 0 0 1 4 4v48a4 4 0 0 1-4 4zm6.5-56a.5.5 0 0 1-.5-.5a3.5 3.5 0 0 1 3.5-3.5h9a3.5 3.5 0 0 1 3.5 3.5a.5.5 0 0 1-.5.5z"/></g></svg>