<svg xmlns="http://www.w3.org/2000/svg" width="1em" height="1em" viewBox="0 0 80 80"><g fill="none"><path fill="currentColor" fill-opacity=".25" d="M26 72a4 4 0 0 1-4-4V20a4 4 0 0 1 4-4h28a4 4 0 0 1 4 4v48a4 4 0 0 1-4 4z"/><path fill="currentColor" fill-opacity=".25" d="M22 44h36v24a4 4 0 0 1-4 4H26a4 4 0 0 1-4-4z"/><path stroke="currentColor" stroke-linecap="round" stroke-linejoin="round" d="M58 68V20a4 4 0 0 0-4-4H26a4 4 0 0 0-4 4v48m36 0a4 4 0 0 1-4 4H26a4 4 0 0 1-4-4m36 0V44H22v24M48 8H32"/></g></svg>