<svg xmlns="http://www.w3.org/2000/svg" width="1em" height="1em" viewBox="0 0 80 80"><g fill="none"><path fill="currentColor" fill-opacity=".25" d="M8 59.383V16.099a44.73 44.73 0 0 1 32 5.453v43.284a44.73 44.73 0 0 0-32-5.453m64 0V16.099a44.73 44.73 0 0 0-32 5.453v43.284a44.73 44.73 0 0 1 32-5.453"/><path stroke="currentColor" stroke-linecap="round" stroke-linejoin="round" d="M40 21.552a44.73 44.73 0 0 0-32-5.453v43.284a44.73 44.73 0 0 1 32 5.453m0-43.284v43.284m0-43.284a44.73 44.73 0 0 1 32-5.453v43.284a44.73 44.73 0 0 0-32 5.453"/></g></svg>