<svg xmlns="http://www.w3.org/2000/svg" width="1em" height="1em" viewBox="0 0 80 80"><g fill="none"><path fill="currentColor" fill-opacity=".25" d="M46 50a4 4 0 0 1 4-4h8a4 4 0 0 1 4 4v8a4 4 0 0 1-4 4h-8a4 4 0 0 1-4-4zm0-28a4 4 0 0 1 4-4h8a4 4 0 0 1 4 4v8a4 4 0 0 1-4 4h-8a4 4 0 0 1-4-4zM18 50a4 4 0 0 1 4-4h8a4 4 0 0 1 4 4v8a4 4 0 0 1-4 4h-8a4 4 0 0 1-4-4zm0-28a4 4 0 0 1 4-4h8a4 4 0 0 1 4 4v8a4 4 0 0 1-4 4h-8a4 4 0 0 1-4-4z"/><path fill="currentColor" fill-opacity=".25" fill-rule="evenodd" d="M50 46h8a4 4 0 0 1 4 4v8a4 4 0 0 1-4 4h-8a4 4 0 0 1-4-4v-8a4 4 0 0 1 4-4m0-28h8a4 4 0 0 1 4 4v8a4 4 0 0 1-4 4h-8a4 4 0 0 1-4-4v-8a4 4 0 0 1 4-4M22 46h8a4 4 0 0 1 4 4v8a4 4 0 0 1-4 4h-8a4 4 0 0 1-4-4v-8a4 4 0 0 1 4-4m0-28h8a4 4 0 0 1 4 4v8a4 4 0 0 1-4 4h-8a4 4 0 0 1-4-4v-8a4 4 0 0 1 4-4" clip-rule="evenodd"/><path stroke="currentColor" stroke-linecap="round" d="M46 50a4 4 0 0 1 4-4h8a4 4 0 0 1 4 4v8a4 4 0 0 1-4 4h-8a4 4 0 0 1-4-4zm0-28a4 4 0 0 1 4-4h8a4 4 0 0 1 4 4v8a4 4 0 0 1-4 4h-8a4 4 0 0 1-4-4zM18 50a4 4 0 0 1 4-4h8a4 4 0 0 1 4 4v8a4 4 0 0 1-4 4h-8a4 4 0 0 1-4-4zm0-28a4 4 0 0 1 4-4h8a4 4 0 0 1 4 4v8a4 4 0 0 1-4 4h-8a4 4 0 0 1-4-4z"/><path stroke="currentColor" stroke-linecap="round" d="M50 46h8a4 4 0 0 1 4 4v8a4 4 0 0 1-4 4h-8a4 4 0 0 1-4-4v-8a4 4 0 0 1 4-4Zm0-28h8a4 4 0 0 1 4 4v8a4 4 0 0 1-4 4h-8a4 4 0 0 1-4-4v-8a4 4 0 0 1 4-4ZM22 46h8a4 4 0 0 1 4 4v8a4 4 0 0 1-4 4h-8a4 4 0 0 1-4-4v-8a4 4 0 0 1 4-4Zm0-28h8a4 4 0 0 1 4 4v8a4 4 0 0 1-4 4h-8a4 4 0 0 1-4-4v-8a4 4 0 0 1 4-4Z" clip-rule="evenodd"/></g></svg>