<svg xmlns="http://www.w3.org/2000/svg" width="1em" height="1em" viewBox="0 0 80 80"><g fill="none"><path fill="currentColor" fill-opacity=".25" d="M8 16a4 4 0 0 1 4-4h8a4 4 0 0 1 4 4v48a4 4 0 0 1-4 4h-8a4 4 0 0 1-4-4zm24 0a4 4 0 0 1 4-4h8a4 4 0 0 1 4 4v48a4 4 0 0 1-4 4h-8a4 4 0 0 1-4-4zm24 0a4 4 0 0 1 4-4h8a4 4 0 0 1 4 4v48a4 4 0 0 1-4 4h-8a4 4 0 0 1-4-4z"/><path stroke="currentColor" stroke-linecap="round" d="M8 16a4 4 0 0 1 4-4h8a4 4 0 0 1 4 4v48a4 4 0 0 1-4 4h-8a4 4 0 0 1-4-4zm24 0a4 4 0 0 1 4-4h8a4 4 0 0 1 4 4v48a4 4 0 0 1-4 4h-8a4 4 0 0 1-4-4zm24 0a4 4 0 0 1 4-4h8a4 4 0 0 1 4 4v48a4 4 0 0 1-4 4h-8a4 4 0 0 1-4-4z"/></g></svg>