<svg xmlns="http://www.w3.org/2000/svg" width="1em" height="1em" viewBox="0 0 80 80"><path fill="currentColor" fill-opacity=".25" fill-rule="evenodd" stroke="currentColor" stroke-linecap="round" stroke-linejoin="round" d="M29.748 17.164a5 5 0 0 1 5-5h10a5 5 0 0 1 5 5v13h13a5 5 0 0 1 5 5v10a5 5 0 0 1-5 5h-13v13a5 5 0 0 1-5 5h-10a5 5 0 0 1-5-5v-13h-13a5 5 0 0 1-5-5v-10a5 5 0 0 1 5-5h13zm5-1a1 1 0 0 0-1 1v15a2 2 0 0 1-2 2h-15a1 1 0 0 0-1 1v10a1 1 0 0 0 1 1h15a2 2 0 0 1 2 2v15a1 1 0 0 0 1 1h10a1 1 0 0 0 1-1v-14.75a2.25 2.25 0 0 1 2.25-2.25h14.75a1 1 0 0 0 1-1v-10a1 1 0 0 0-1-1h-14.75a2.25 2.25 0 0 1-2.25-2.25v-14.75a1 1 0 0 0-1-1z" clip-rule="evenodd"/></svg>