<svg xmlns="http://www.w3.org/2000/svg" width="1em" height="1em" viewBox="0 0 80 80"><g fill="none" stroke="currentColor" stroke-linecap="round" stroke-linejoin="round"><path d="M30 30q0 0 0 0m0 0V15a3 3 0 0 1 3-3h12a3 3 0 0 1 3 3v14.75c0 .138.112.25.25.25H63a3 3 0 0 1 3 3v12a3 3 0 0 1-3 3H48.5a.5.5 0 0 0-.5.5V63a3 3 0 0 1-3 3H33a3 3 0 0 1-3-3V48m0-18H15a3 3 0 0 0-3 3v12a3 3 0 0 0 3 3h15m0 0q0 0 0 0"/><path d="M21 42.99v-8l-4 4zM42.99 21h-8l4-4zM57 42.99v-8l4 4zM42.99 57h-8l4 4zM43 39a4 4 0 1 1-8 0a4 4 0 0 1 8 0"/></g></svg>