<svg xmlns="http://www.w3.org/2000/svg" width="1em" height="1em" viewBox="0 0 80 80"><g fill="none"><path fill="currentColor" fill-opacity=".25" d="M42 72h18V18a2 2 0 0 0-2-2H44v54a2 2 0 0 1-2 2"/><path fill="currentColor" fill-opacity=".25" d="M20 17.442a2 2 0 0 1 1.367-1.898l20-6.666A2 2 0 0 1 44 10.775V70a2 2 0 0 1-2 2H20z"/><path stroke="currentColor" stroke-linecap="round" stroke-linejoin="round" d="M42 72h18V18a2 2 0 0 0-2-2H44v54m-2 2a2 2 0 0 0 2-2m-2 2H20V17.442a2 2 0 0 1 1.367-1.898l20-6.666A2 2 0 0 1 44 10.775V70m24 2H12m22.017-26.739l3.966-.522"/></g></svg>