<svg xmlns="http://www.w3.org/2000/svg" width="1em" height="1em" viewBox="0 0 80 80"><g fill="none"><path fill="currentColor" fill-opacity=".25" d="M48 40a2 2 0 1 0 0 4h4a2 2 0 1 0 0-4z"/><path fill="currentColor" fill-opacity=".25" fill-rule="evenodd" d="M18 14a4 4 0 0 1 4-4h36a4 4 0 0 1 4 4v52h6a2 2 0 1 1 0 4H12a2 2 0 1 1 0-4h6zm4 0h36v52H22z" clip-rule="evenodd"/><path stroke="currentColor" stroke-linecap="round" stroke-linejoin="round" d="M48 40a2 2 0 1 0 0 4h4a2 2 0 1 0 0-4z"/><path stroke="currentColor" stroke-linecap="round" stroke-linejoin="round" d="M18 14a4 4 0 0 1 4-4h36a4 4 0 0 1 4 4v52h6a2 2 0 1 1 0 4H12a2 2 0 1 1 0-4h6zm4 0h36v52H22z" clip-rule="evenodd"/></g></svg>