<svg xmlns="http://www.w3.org/2000/svg" width="1em" height="1em" viewBox="0 0 80 80"><g fill="none" stroke="currentColor"><path stroke-linecap="round" stroke-linejoin="round" d="M12 14a2 2 0 0 1 2-2h52a2 2 0 0 1 2 2v52a2 2 0 0 1-2 2H14a2 2 0 0 1-2-2z"/><path stroke-linecap="square" d="M37 24.243a2 2 0 0 1 2-2h2a2 2 0 0 1 2 2v2a2 2 0 0 1-2 2h-2a2 2 0 0 1-2-2zm0 15a2 2 0 0 1 2-2h2a2 2 0 0 1 2 2v2a2 2 0 0 1-2 2h-2a2 2 0 0 1-2-2zm0 15a2 2 0 0 1 2-2h2a2 2 0 0 1 2 2v2a2 2 0 0 1-2 2h-2a2 2 0 0 1-2-2z"/></g></svg>