<svg xmlns="http://www.w3.org/2000/svg" width="1em" height="1em" viewBox="0 0 80 80"><g fill="none" fill-rule="evenodd" clip-rule="evenodd"><path fill="currentColor" fill-opacity=".25" d="M34 22a4 4 0 0 1 4-4h4a4 4 0 0 1 4 4v4a4 4 0 0 1-4 4h-4a4 4 0 0 1-4-4zm8 0h-4v4h4zm-8 16a4 4 0 0 1 4-4h4a4 4 0 0 1 4 4v4a4 4 0 0 1-4 4h-4a4 4 0 0 1-4-4zm8 0h-4v4h4zm-4 12a4 4 0 0 0-4 4v4a4 4 0 0 0 4 4h4a4 4 0 0 0 4-4v-4a4 4 0 0 0-4-4zm0 4h4v4h-4z"/><path stroke="currentColor" stroke-linecap="round" stroke-linejoin="round" d="M34 22a4 4 0 0 1 4-4h4a4 4 0 0 1 4 4v4a4 4 0 0 1-4 4h-4a4 4 0 0 1-4-4zm8 0h-4v4h4zm-8 16a4 4 0 0 1 4-4h4a4 4 0 0 1 4 4v4a4 4 0 0 1-4 4h-4a4 4 0 0 1-4-4zm8 0h-4v4h4zm-4 12a4 4 0 0 0-4 4v4a4 4 0 0 0 4 4h4a4 4 0 0 0 4-4v-4a4 4 0 0 0-4-4zm0 4h4v4h-4z"/></g></svg>