<svg xmlns="http://www.w3.org/2000/svg" width="1em" height="1em" viewBox="0 0 80 80"><g fill="none"><path fill="currentColor" fill-opacity=".25" d="M71.014 40a34.237 34.237 0 0 1-62.03.002A34.237 34.237 0 0 1 71.014 40"/><path fill="currentColor" fill-opacity=".25" d="M35.308 49.74a10.812 10.812 0 1 0 9.382-19.48a10.812 10.812 0 0 0-9.382 19.48"/><path stroke="currentColor" stroke-linecap="round" stroke-linejoin="round" d="M71.014 40a34.237 34.237 0 0 1-62.03.002A34.237 34.237 0 0 1 71.014 40"/><path stroke="currentColor" stroke-linecap="round" stroke-linejoin="round" d="M35.308 49.74a10.812 10.812 0 1 0 9.382-19.48a10.812 10.812 0 0 0-9.382 19.48"/></g></svg>