<svg xmlns="http://www.w3.org/2000/svg" width="1em" height="1em" viewBox="0 0 80 80"><g fill="none"><path fill="currentColor" fill-opacity=".25" d="m13 52l8.386-1.864A29.88 29.88 0 0 1 40 52a29.88 29.88 0 0 0 18.614 1.864L67 52V16l-8.386 1.863A29.88 29.88 0 0 1 40 16a29.88 29.88 0 0 0-18.614-1.864L13 16z"/><path stroke="currentColor" stroke-linecap="round" stroke-linejoin="round" d="M13 12v56m0-16l8.386-1.864A29.88 29.88 0 0 1 40 52a29.88 29.88 0 0 0 18.614 1.864L67 52V16l-8.386 1.863A29.88 29.88 0 0 1 40 16a29.88 29.88 0 0 0-18.614-1.864L13 16z"/></g></svg>