<svg xmlns="http://www.w3.org/2000/svg" width="1em" height="1em" viewBox="0 0 80 80"><g fill="none"><path fill="currentColor" fill-opacity=".25" d="M12 16a4 4 0 0 1 4-4h16a4 4 0 0 1 4 4v16a4 4 0 0 1-4 4H16a4 4 0 0 1-4-4zm32 0a4 4 0 0 1 4-4h16a4 4 0 0 1 4 4v16a4 4 0 0 1-4 4H48a4 4 0 0 1-4-4zM12 48a4 4 0 0 1 4-4h16a4 4 0 0 1 4 4v16a4 4 0 0 1-4 4H16a4 4 0 0 1-4-4zm32 0a4 4 0 0 1 4-4h16a4 4 0 0 1 4 4v16a4 4 0 0 1-4 4H48a4 4 0 0 1-4-4z"/><path stroke="currentColor" stroke-linecap="round" stroke-linejoin="round" d="M12 16a4 4 0 0 1 4-4h16a4 4 0 0 1 4 4v16a4 4 0 0 1-4 4H16a4 4 0 0 1-4-4zm32 0a4 4 0 0 1 4-4h16a4 4 0 0 1 4 4v16a4 4 0 0 1-4 4H48a4 4 0 0 1-4-4zM12 48a4 4 0 0 1 4-4h16a4 4 0 0 1 4 4v16a4 4 0 0 1-4 4H16a4 4 0 0 1-4-4zm32 0a4 4 0 0 1 4-4h16a4 4 0 0 1 4 4v16a4 4 0 0 1-4 4H48a4 4 0 0 1-4-4z"/></g></svg>