<svg xmlns="http://www.w3.org/2000/svg" width="1em" height="1em" viewBox="0 0 80 80"><path fill="currentColor" d="M27.047 14a4 4 0 0 0-4-4H14a4 4 0 0 0-4 4v8a4 4 0 0 0 4 4h9.047a4 4 0 0 0 4-4zM14 48a4 4 0 0 1-4-4v-8a4 4 0 0 1 4-4h9.047a4 4 0 0 1 4 4v8a4 4 0 0 1-4 4zm0 6a4 4 0 0 0-4 4v8a4 4 0 0 0 4 4h9.047a4 4 0 0 0 4-4v-8a4 4 0 0 0-4-4zm23.047 0a4 4 0 0 0-4 4v8a4 4 0 0 0 4 4H66a4 4 0 0 0 4-4v-8a4 4 0 0 0-4-4zM66 48a4 4 0 0 0 4-4v-8a4 4 0 0 0-4-4H37.047a4 4 0 0 0-4 4v8a4 4 0 0 0 4 4zm4-34v8a4 4 0 0 1-4 4H37.047a4 4 0 0 1-4-4v-8a4 4 0 0 1 4-4H66a4 4 0 0 1 4 4"/></svg>