<svg xmlns="http://www.w3.org/2000/svg" width="1em" height="1em" viewBox="0 0 80 80"><path fill="currentColor" fill-rule="evenodd" d="M40.788 16.338a2 2 0 0 0-1.576 0L16.29 26.162c-1.616.692-1.616 2.984 0 3.676l22.923 9.824a2 2 0 0 0 1.576 0l22.923-9.824c1.616-.692 1.616-2.984 0-3.676zM19.756 35.676l-3.467 1.486c-1.616.692-1.616 2.984 0 3.676l22.923 9.824a2 2 0 0 0 1.576 0l22.923-9.824c1.616-.692 1.616-2.984 0-3.676l-3.467-1.486l-17.88 7.663a6 6 0 0 1-4.727 0zm0 11l-3.467 1.486c-1.616.692-1.616 2.984 0 3.676l22.923 9.824a2 2 0 0 0 1.576 0l22.923-9.824c1.616-.692 1.616-2.984 0-3.676l-3.467-1.486l-17.88 7.663a6 6 0 0 1-4.727 0z" clip-rule="evenodd"/></svg>