<svg xmlns="http://www.w3.org/2000/svg" width="1em" height="1em" viewBox="0 0 80 80"><g fill="none"><path fill="currentColor" fill-opacity=".25" d="M22 28c0-8.837 7.163-16 16-16h4c8.837 0 16 7.163 16 16v24c0 8.837-7.163 16-16 16h-4c-8.837 0-16-7.163-16-16z"/><path fill="currentColor" fill-opacity=".25" d="M40 20a3 3 0 0 1 3 3v5a3 3 0 1 1-6 0v-5a3 3 0 0 1 3-3"/><path stroke="currentColor" stroke-linecap="round" stroke-linejoin="round" d="M22 28c0-8.837 7.163-16 16-16h4c8.837 0 16 7.163 16 16v24c0 8.837-7.163 16-16 16h-4c-8.837 0-16-7.163-16-16z"/><path stroke="currentColor" stroke-linecap="round" stroke-linejoin="round" d="M40 20a3 3 0 0 1 3 3v5a3 3 0 1 1-6 0v-5a3 3 0 0 1 3-3"/></g></svg>