<svg xmlns="http://www.w3.org/2000/svg" width="1em" height="1em" viewBox="0 0 80 80"><g fill="none"><path fill="currentColor" fill-opacity=".25" d="M32 50.5c0 3.866-4.03 7-9 7s-9-3.134-9-7s4.03-7 9-7s9 3.134 9 7m34 8c0 3.866-4.03 7-9 7s-9-3.134-9-7s4.03-7 9-7s9 3.134 9 7"/><path stroke="currentColor" stroke-linecap="round" stroke-linejoin="round" d="M32 50.5v-36l34 8v36m-34-8c0 3.866-4.03 7-9 7s-9-3.134-9-7s4.03-7 9-7s9 3.134 9 7m34 8c0 3.866-4.03 7-9 7s-9-3.134-9-7s4.03-7 9-7s9 3.134 9 7m-34-34l34 8"/></g></svg>