<svg xmlns="http://www.w3.org/2000/svg" width="1em" height="1em" viewBox="0 0 80 80"><g fill="none"><path fill="currentColor" fill-opacity=".25" d="M52 12.75a7.99 7.99 0 0 1-3.035 6.273l2.62 17.026a20.33 20.33 0 0 1 8.343 12.701H20.072a20.32 20.32 0 0 1 8.344-12.7l2.619-17.027A7.99 7.99 0 0 1 28 12.75z"/><path stroke="currentColor" stroke-linecap="round" stroke-linejoin="round" d="M40 48.75v18.5m12-54.5a7.99 7.99 0 0 1-3.035 6.273l2.62 17.026a20.33 20.33 0 0 1 8.343 12.701H20.072a20.32 20.32 0 0 1 8.344-12.7l2.619-17.027A7.99 7.99 0 0 1 28 12.75z"/></g></svg>