<svg xmlns="http://www.w3.org/2000/svg" width="1em" height="1em" viewBox="0 0 80 80"><g fill="none"><path fill="currentColor" fill-opacity=".25" d="M29.33 47.5a8.66 8.66 0 1 1-8.66-15a8.66 8.66 0 0 1 8.66 15m30 18a8.66 8.66 0 1 1-8.66-15a8.66 8.66 0 0 1 8.66 15m0-36a8.66 8.66 0 1 1-8.66-15a8.66 8.66 0 0 1 8.66 15"/><path stroke="currentColor" stroke-linecap="round" stroke-linejoin="round" d="m32.29 35.33l15.154-9.093m.001 27.534l-15.154-9.093M33.66 40a8.66 8.66 0 1 1-17.32 0a8.66 8.66 0 0 1 17.32 0m30 18a8.66 8.66 0 1 1-17.32 0a8.66 8.66 0 0 1 17.32 0m0-36a8.66 8.66 0 1 1-17.32 0a8.66 8.66 0 0 1 17.32 0"/></g></svg>