<svg xmlns="http://www.w3.org/2000/svg" width="1em" height="1em" viewBox="0 0 80 80"><g fill="none"><path fill="currentColor" fill-opacity=".25" d="M68 66a2 2 0 0 1-2 2h-4a2 2 0 0 1-2-2V14a2 2 0 0 1 2-2h4a2 2 0 0 1 2 2zm-18 2a2 2 0 0 0 2-2V26a2 2 0 0 0-2-2h-4a2 2 0 0 0-2 2v40a2 2 0 0 0 2 2zm-14-2a2 2 0 0 1-2 2h-4a2 2 0 0 1-2-2V38a2 2 0 0 1 2-2h4a2 2 0 0 1 2 2zm-16 0a2 2 0 0 1-2 2h-4a2 2 0 0 1-2-2V50a2 2 0 0 1 2-2h4a2 2 0 0 1 2 2z"/><path stroke="currentColor" stroke-linecap="round" stroke-linejoin="round" d="M68 66a2 2 0 0 1-2 2h-4a2 2 0 0 1-2-2V14a2 2 0 0 1 2-2h4a2 2 0 0 1 2 2zm-18 2a2 2 0 0 0 2-2V26a2 2 0 0 0-2-2h-4a2 2 0 0 0-2 2v40a2 2 0 0 0 2 2zm-14-2a2 2 0 0 1-2 2h-4a2 2 0 0 1-2-2V38a2 2 0 0 1 2-2h4a2 2 0 0 1 2 2zm-16 0a2 2 0 0 1-2 2h-4a2 2 0 0 1-2-2V50a2 2 0 0 1 2-2h4a2 2 0 0 1 2 2z"/></g></svg>