<svg xmlns="http://www.w3.org/2000/svg" width="1em" height="1em" viewBox="0 0 80 80"><g fill="none"><path fill="currentColor" fill-opacity=".25" d="M25.818 25H14.182c-1.174 0-1.762-1.42-.932-2.25l5.336-5.336a2 2 0 0 1 2.828 0l5.336 5.336c.83.83.242 2.25-.932 2.25"/><path stroke="currentColor" stroke-linecap="round" stroke-linejoin="round" d="M20 25v39m17-42h8m-8 12h16M37 46h24M37 58h32M14.182 25h11.636c1.174 0 1.762-1.42.932-2.25l-5.336-5.336a2 2 0 0 0-2.828 0L13.25 22.75c-.83.83-.242 2.25.932 2.25"/></g></svg>