<svg xmlns="http://www.w3.org/2000/svg" width="1em" height="1em" viewBox="0 0 80 80"><g fill="none"><path fill="currentColor" fill-opacity=".25" d="m32 12l5.657 14.343L52 32l-14.343 5.657L32 52l-5.657-14.343L12 32l14.343-5.657zm24 32l3.394 8.606L68 56l-8.606 3.394L56 68l-3.394-8.606L44 56l8.606-3.394z"/><path stroke="currentColor" stroke-linecap="round" stroke-linejoin="round" d="m32 12l5.657 14.343L52 32l-14.343 5.657L32 52l-5.657-14.343L12 32l14.343-5.657zm24 32l3.394 8.606L68 56l-8.606 3.394L56 68l-3.394-8.606L44 56l8.606-3.394z"/></g></svg>