<svg xmlns="http://www.w3.org/2000/svg" width="1em" height="1em" viewBox="0 0 80 80"><g fill="none"><path fill="currentColor" fill-opacity=".25" d="M16 18a2 2 0 0 1 2-2h44a2 2 0 0 1 2 2v44a2 2 0 0 1-2 2H18a2 2 0 0 1-2-2z"/><path fill="currentColor" fill-opacity=".25" d="M18 64h22V16H18a2 2 0 0 0-2 2v44a2 2 0 0 0 2 2"/><path stroke="currentColor" stroke-linecap="round" stroke-linejoin="round" d="M18 64h44a2 2 0 0 0 2-2V18a2 2 0 0 0-2-2H18m0 48a2 2 0 0 1-2-2V18a2 2 0 0 1 2-2m0 48h22V16H18"/></g></svg>