<svg xmlns="http://www.w3.org/2000/svg" width="1em" height="1em" viewBox="0 0 80 80"><g fill="none"><path fill="currentColor" fill-opacity=".25" d="M8 32a8 8 0 0 1 8-8h48a8 8 0 0 1 8 8v16a8 8 0 0 1-8 8H16a8 8 0 0 1-8-8z"/><path fill="currentColor" fill-opacity=".25" d="M8 32a8 8 0 0 1 8-8h16a8 8 0 0 1 8 8v16a8 8 0 0 1-8 8H16a8 8 0 0 1-8-8z"/><path stroke="currentColor" stroke-linecap="round" stroke-linejoin="round" d="M16 56h48a8 8 0 0 0 8-8V32a8 8 0 0 0-8-8H16m0 32a8 8 0 0 1-8-8V32a8 8 0 0 1 8-8m0 32h16a8 8 0 0 0 8-8V32a8 8 0 0 0-8-8H16"/></g></svg>