<svg xmlns="http://www.w3.org/2000/svg" width="1em" height="1em" viewBox="0 0 80 80"><g fill="none"><path fill="currentColor" fill-opacity=".25" d="M19.34 35a17.32 17.32 0 1 1 17.32 30a17.32 17.32 0 0 1-17.32-30"/><path fill="currentColor" fill-opacity=".25" d="M31.34 15a17.32 17.32 0 1 1 17.32 30a17.32 17.32 0 0 1-17.32-30"/><path fill="currentColor" fill-opacity=".25" d="M43.34 35a17.32 17.32 0 1 1 17.32 30a17.32 17.32 0 0 1-17.32-30"/><path stroke="currentColor" stroke-linecap="square" stroke-linejoin="round" d="M19.34 35a17.32 17.32 0 1 1 17.32 30a17.32 17.32 0 0 1-17.32-30Z"/><path stroke="currentColor" stroke-linecap="square" stroke-linejoin="round" d="M31.34 15a17.32 17.32 0 1 1 17.32 30a17.32 17.32 0 0 1-17.32-30Z"/><path stroke="currentColor" stroke-linecap="square" stroke-linejoin="round" d="M43.34 35a17.32 17.32 0 1 1 17.32 30a17.32 17.32 0 0 1-17.32-30Z"/></g></svg>