<svg xmlns="http://www.w3.org/2000/svg" width="1em" height="1em" viewBox="0 0 80 80"><g fill="none"><path fill="currentColor" fill-opacity=".25" d="M32 12a4 4 0 0 0-4 4v6h24v-6a4 4 0 0 0-4-4zm20 46H28v6a4 4 0 0 0 4 4h16a4 4 0 0 0 4-4zM20 29a7 7 0 0 1 7-7h26a7 7 0 0 1 7 7v22a7 7 0 0 1-7 7H27a7 7 0 0 1-7-7z"/><path stroke="currentColor" stroke-linecap="round" stroke-linejoin="round" d="M32 12a4 4 0 0 0-4 4v6h24v-6a4 4 0 0 0-4-4zm20 46H28v6a4 4 0 0 0 4 4h16a4 4 0 0 0 4-4zM20 29a7 7 0 0 1 7-7h26a7 7 0 0 1 7 7v22a7 7 0 0 1-7 7H27a7 7 0 0 1-7-7z"/></g></svg>