<svg xmlns="http://www.w3.org/2000/svg" width="1em" height="1em" viewBox="0 0 24 24"><path fill="currentColor" d="M10.28 8.55A1 1 0 0 0 9.39 8H5.63c-.38 0-.73.21-.89.55l-1.5 3c-.14.28-.14.61 0 .89l1.5 3a1 1 0 0 0 .89.55h3.76c.38 0 .73-.21.89-.55l1.5-3c.14-.28.14-.61 0-.89zm9-5a1 1 0 0 0-.89-.55h-3.76c-.38 0-.73.21-.89.55l-1.5 3c-.14.28-.14.61 0 .89l1.5 3a1 1 0 0 0 .89.55h3.76c.38 0 .73-.21.89-.55l1.5-3c.14-.28.14-.61 0-.89zm0 10a1 1 0 0 0-.89-.55h-3.76c-.38 0-.73.21-.89.55l-1.5 3c-.14.28-.14.61 0 .89l1.5 3a1 1 0 0 0 .89.55h3.76c.38 0 .73-.21.89-.55l1.5-3c.14-.28.14-.61 0-.89z"/></svg>