<svg xmlns="http://www.w3.org/2000/svg" width="1em" height="1em" viewBox="0 0 24 24"><path fill="currentColor" d="M20.93 8.509a1.8 1.8 0 0 0-.14-.557a2 2 0 0 0-.362-.568a1.95 1.95 0 0 0-.656-.476a1.6 1.6 0 0 0-.392-.123l-.134-.02q-.023-.006-.044-.019H4.799c-.015.006-.023.016-.044.018a1.84 1.84 0 0 0-.963.413q-.376.305-.567.75a2 2 0 0 0-.133.436c-.03.162-.04.324-.04.489q0 3.137.002 6.267a2.04 2.04 0 0 0 .529 1.384q.276.303.65.47a2 2 0 0 0 .874.16h13.861c.05 0 .1.004.148-.002a7 7 0 0 0 .321-.05a1.6 1.6 0 0 0 .304-.098a1.97 1.97 0 0 0 1.169-1.462c.013-.093.02-.188.032-.282l.006-.053v-6.45c-.006-.105-.012-.166-.016-.228h-.001Zm-9.565 2.281c-.002.16-.028.32-.078.472a1 1 0 0 1-.477.581l-.11.06c-.071.04-.152.053-.231.073q-.238.058-.476.112c-.125.03-.251.055-.376.084l-.28.069l-.375.084l-.264.062l-.392.09l-.274.066l-.386.089l-.369.089l-.375.084l-.274.066l-.133.03a.21.21 0 0 0-.18.202q-.006.267-.005.535c0 .084 0 .168.008.252a.4.4 0 0 0 .036.129c.037.088.113.129.2.15c.149.038.301.04.454.038h.066l3.469-.001l.73-.001l.072.003v1.15c-.018-.075-.034-.073-.05-.073H9.54l-1.2-.002H6.141a1.4 1.4 0 0 1-.426-.056a.91.91 0 0 1-.628-.607a1.3 1.3 0 0 1-.064-.424q0-.59.003-1.18c0-.113.008-.221.026-.337c.033-.21.103-.406.242-.572a.9.9 0 0 1 .334-.242c.139-.064.285-.104.433-.137q.2-.044.397-.09c.1-.022.202-.04.303-.063l.402-.09q.198-.043.399-.083l.29-.066l.409-.088l.302-.068l.403-.087l.402-.09c.096-.022.191-.04.286-.063a.7.7 0 0 0 .288-.132a.45.45 0 0 0 .158-.27a1.2 1.2 0 0 0-.004-.473c-.028-.142-.095-.175-.226-.341a.53.53 0 0 0-.26-.069q-.198-.003-.398-.002H6.77c-.084 0-.167.009-.25.018a.34.34 0 0 0-.149.06a.24.24 0 0 0-.092.137a.5.5 0 0 0-.018.162v.125c-.041-.039-1.14-.035-1.215-.046q-.004-.02-.005-.041c.002-.244-.003-.489.01-.732a.7.7 0 0 1 .28-.524c.137-.106.295-.165.464-.199c.16-.033.32-.04.483-.04l2.935-.002l.987-.002q.075 0 .147.003c.126.004.245.036.358.083c.178.075.329.188.444.345c.106.145.181.307.202.486c.019.112.015.225.016.337q.003.484-.001.967Zm7.507 3.756q-.102.27-.325.453a1.3 1.3 0 0 1-.788.278h-.944c-.15 0-.298-.007-.445-.032a1.3 1.3 0 0 1-.528-.199a1.1 1.1 0 0 1-.381-.47a2 2 0 0 1-.116-.355c-.019-.078-.027-.158-.041-.237l-.053-.29l-.044-.257l-.032-.171l-.043-.237l-.05-.295l-.05-.284l-.043-.236l-.069-.369c-.017-.092-.038-.185-.055-.277l-.04-.237l-.048-.251l-.05-.268l-.048-.246l-.05-.273c-.023-.108-.047-.216-.124-.303a.43.43 0 0 0-.258-.149a1.6 1.6 0 0 0-.569.001c-.12.023-.226.077-.28.198a.4.4 0 0 0-.034.17v.53l.001 2.607l.002 1.852c0 .076 0 .076-.075.076h-.954q-.04 0-.041-.04V9.748c0-.08 0-.16.012-.24c.057-.367.23-.66.572-.831a1 1 0 0 1 .283-.09a1.4 1.4 0 0 1 .255-.016c.418 0 .836-.007 1.254.003c.327.008.608.13.82.39q.17.21.25.465q.053.156.092.313c.018.076.027.154.042.23l.055.284l.042.247l.064.331l.033.188l.046.23l.087.47l.051.262l.044.246l.047.252l.052.284l.048.24q.031.174.066.348c.023.112.043.225.074.334a.45.45 0 0 0 .326.319a.7.7 0 0 0 .243.024c.062-.005.124-.004.185-.007c.07-.003.139-.002.206-.012a.35.35 0 0 0 .237-.159a.5.5 0 0 0 .084-.277l.005-2.82l.003-2.115v-.027h1.07c.003-.027.005-.014.005 0v5.459c0 .162-.023.32-.08.47z"/></svg>