<svg xmlns="http://www.w3.org/2000/svg" width="1em" height="1em" viewBox="0 0 24 24"><path fill="currentColor" d="M14.125 12.07a1.04 1.04 0 0 1-.656.2h-.079a1.05 1.05 0 0 1-.677-.35H12.7l-.005.004l-.275.337a.04.04 0 0 0-.011.027q0 .015.011.028a1.53 1.53 0 0 0 .822.42c.03 0 .063.01.093.013a1.5 1.5 0 0 0 .999-.24zm-1.34.507c-.09.226-.26.467-.308.684c.255.001.59.07.643-.266c.09-.223.392-.536-.335-.418m1.206-1.844c-.286-.089-.412.107-.488.352l-.37.768l.47.137c.11-.139.218-.715.329-.32c.247.516.5 1.03.748 1.546c.095.03.622.156.518-.045l-1.165-2.412zm4.257.032l-.875 1.066c-.32-.357-.589-.78-.94-1.098c-.233-.032-.49-.03-.385.285c.003.739-.005 1.479.004 2.217c.183.048.592.111.48-.217V11.57c.286.328.544.695.845 1c.3-.31.558-.67.841-1c.009.559-.017 1.125.013 1.68c.13-.023.508.126.472-.112c-.002-.79.003-1.582-.003-2.372c-.122-.05-.32-.036-.452-.001m2.083 2.018c.049-.197-.144-.636.202-.537c.415-.003.83.005 1.245-.004c.048-.126.06-.376-.015-.48H20.33c.049-.199-.144-.638.202-.54c.48-.002.961.005 1.44-.003c.068-.213.08-.594-.258-.48h-1.828c-.097.262-.016.598-.042.889v1.597c.263.095.598.016.889.042h1.223c.074-.167.13-.603-.201-.482l-1.425-.002m-10.465 0c.048-.197-.144-.636.201-.537c.419-.01.846.018 1.259-.013c-.016-.148.13-.54-.15-.472h-1.31c.048-.198-.144-.637.201-.539c.484-.009.975.018 1.454-.012c-.006-.171.124-.567-.191-.47c-.646.008-1.298-.018-1.94.012c-.027.82-.003 1.65-.01 2.473c.246.097.57.016.846.043c.43-.01.87.017 1.295-.013c-.002-.17.117-.563-.192-.47zm-3.681-1.569H7.32a.27.27 0 0 1 .27.27a.27.27 0 0 1-.27.27H6.184zm1.329 1a.751.751 0 0 0-.191-1.476h-1.58a.04.04 0 0 0-.028.012a.04.04 0 0 0-.012.03v2.442a.043.043 0 0 0 .04.043h.4a.043.043 0 0 0 .043-.043v-.978h.778l.603.982a.1.1 0 0 0 .031.029a.1.1 0 0 0 .041.01h.5l.007-.002l.005-.005l.002-.008l-.001-.007zm-5.03-.996c.498.027 1.116-.14 1.42.403c.43.874-.556 1.268-1.243 1.158c-.326.078-.12-.375-.177-.565zm2.045.78c.026-1.035-1.03-1.344-1.863-1.264c-.212.031-.493-.06-.666.042c.009.823-.017 1.655.013 2.473c.426.03.867.004 1.299.012c.66-.01 1.232-.604 1.217-1.263"/></svg>