<svg xmlns="http://www.w3.org/2000/svg" width="1em" height="1em" viewBox="0 0 24 24"><path fill="currentColor" d="M19.72 5.1c-.72-1.19-1.91-2.04-3.21-2.52c-2.01-.75-4.12-.6-6.21-.46c-.63.04-1.26.11-1.88.25c-1.28.28-2.54.83-3.44 1.79C3.9 5.3 3.42 6.94 3.6 8.5c.1.88.6 1.73 1.22 2.35c.68.68 1.81 1.06 2.41 1.22c3.13.84 6.33.63 9.48-.15c.73-.18 1.59-.59 2.19-1.04c.65-.5 1.11-.99 1.33-1.78c.39-1.33.19-2.82-.52-4Zm-4.58-1.89c-.8.15-1.78.33-3.08.33c-.9 0-1.94-.09-3.19-.33c-.08-.02-.14-.1-.12-.18s.1-.14.18-.12c2.99.59 4.82.25 6.16 0c.08-.02.16.04.18.12s-.04.16-.12.18Zm.85 17.29c0 .83-1.77 1.5-3.95 1.5s-3.95-.67-3.95-1.5l-.23-7.8c2.77.63 5.59.46 8.37-.17L16 20.5Z"/></svg>