<svg xmlns="http://www.w3.org/2000/svg" width="1em" height="1em" viewBox="0 0 24 24"><path fill="currentColor" d="M14.18 6.85c-.66.04-1.35.07-2.06.07v6.29c.71 0 1.4-.03 2.06-.07zm-2.37.08c-.71 0-1.4-.03-2.06-.07v6.28c.66.05 1.35.07 2.06.08zm-2.38-.1c-.73-.06-1.42-.14-2.06-.24v6.27c.64.11 1.33.19 2.06.25zm-2.37-.3c-.79-.14-1.48-.31-2.06-.51v6.25c.56.21 1.26.39 2.06.54V6.54ZM4.69 5.9c-.51-.2-.9-.42-1.16-.66l.03 6.06c.15.3.55.58 1.13.83V5.89Zm14.54.02v6.23c.62-.26 1.04-.55 1.2-.86V5.26c-.26.24-.67.46-1.2.66m-2.68.67c-.64.1-1.33.18-2.06.24v6.28c.73-.06 1.42-.14 2.06-.25V6.58Zm2.37-.55c-.58.19-1.28.36-2.06.5v6.27c.8-.15 1.49-.33 2.06-.53zM12 13.44c-4.28 0-7.92-.8-8.46-1.8v.37c0 1.28 3.8 2.28 8.46 2.28s8.36-.99 8.44-2.27v-.38c-.55 1.01-4.16 1.8-8.44 1.8m.55 7.01v-5.13c.45-.06.8-.44.8-.91c-.98.12-1.91.12-2.78 0v.04c0 .48.39.87.87.87v5.12h-6.6v1.55h14.32v-1.55h-6.61Zm7.92-16.34C20.44 2.99 16.62 2 12.01 2c-3.96 0-8.42.83-8.46 2.08l-.02.69c0 .07.02.11.05.16c.78.96 4.23 1.67 8.42 1.67s7.42-.67 8.36-1.58c.06-.06.08-.14.1-.22l.02-.68h-.01Z"/></svg>