<svg xmlns="http://www.w3.org/2000/svg" width="1em" height="1em" viewBox="0 0 24 24"><path fill="currentColor" d="M11.509 21.857L10.506 19.3l-.96-2.45H8.282l-.174.424c-.096.259-.426 1.181-.733 2.05c-.547 1.545-.565 1.578-.813 1.578c-.139 0-.253-.034-.253-.075c0-.042.315-.952.7-2.024L7.7 16.85l-.574-.04c-.32-.024-.593-.084-.607-.133s.133-.187.327-.308a1.5 1.5 0 0 0 .532-.584c.17-.354.176-.557.175-6.408c-.002-5.739-.01-6.062-.17-6.415a1.23 1.23 0 0 0-.532-.578c-.2-.114-.35-.305-.334-.354h4.797c.047.047-.078.186-.305.338c-.737.491-.697.088-.697 7.014c0 6.921-.039 6.524.69 7.01c.21.14.357.29.33.336c-.029.045-.31.082-.625.082s-.573 0-.573.04c0 .054 1.399 3.691 1.931 5.009q.046.112-.234.111c-.153 0-.298-.05-.322-.113m5.573-4.268c-.041-.11-.267-.74-.5-1.401c-.234-.66-.46-1.24-.501-1.286c-.047-.052-.22-.013-.454.1c-.341.168-.398.244-.59.797c-.55 1.578-.533 1.545-.827 1.545q-.268 0-.229-.111l.334-.892c.16-.43.273-.8.25-.823c-.024-.024-.528.157-1.12.402c-1.047.434-1.528.53-1.796.36c-.072-.045-.112-.098-.089-.117c.023-.018 1.134-.494 2.469-1.057l2.426-1.024l.02-4.682l.02-4.681l-2.447-1.037c-1.345-.57-2.465-1.054-2.488-1.075c-.08-.076.222-.205.484-.206c.2-.001 5.213 2.036 5.373 2.183c.018.017-.215.09-.336.199c0 0-.141.168-.141.27v8.75c0 .096.077.21.19.293c.17.124.442.085.338.128l-.459.19c-.44.184-.454.201-.366.427c.05.129.307.845.57 1.591l.478 1.357h-.267c-.195 0-.287-.054-.342-.2m-6.372-2.122c-.033-.103-.026-.22.016-.26s.876-.393 1.855-.785c.978-.391 1.989-.8 2.246-.908l.467-.197V5.355l-.556-.234c-.306-.128-1.337-.546-2.29-.927c-1.031-.412-1.744-.745-1.757-.822c-.073-.418.101-.377 2.478.591c1.29.526 2.417 1.016 2.503 1.089c.144.123.155.439.154 4.277c0 2.28-.03 4.19-.067 4.246c-.053.083-4.804 2.079-4.947 2.079c-.024 0-.07-.084-.102-.187"/></svg>