<svg xmlns="http://www.w3.org/2000/svg" width="1em" height="1em" viewBox="0 0 24 24"><path fill="currentColor" d="M11.48 21.977c-1.89-.22-3.05-1.37-3.33-3.3c-.08-.54-.03-.78.2-.9l.1-.05h2.88l2.961-.03c.23-.04.33-.22.65-1.19c1.22-3.721 1.75-5.122 2.45-6.482q1.55-3.05 3.201-3.05c1.43 0 2 1.57.61 1.73c-1.36.15-2.29 1.26-3.26 3.89c-.06.15-.44 1.24-.84 2.431c-1.6 4.681-1.98 5.521-2.851 6.201l-.18.14c-.28.37-1.71.7-2.59.6m-7.352-.54c-.35-.06-.7-.36-.82-.71c-.02-.07-.1-.51-.16-.99l-.48-3.66l-.01-.07h1.93l.02.37l.04.8c0 .25.03.71.05 1.03c0 .33.03.68.03.8l.06 1l.03.8l.03.56v.1h-.3c-.16 0-.35-.02-.42-.03m1.97-.03l-.03-.55l-.06-1.34l-.1-1.9l-.05-1.34l-.02-.26h2.24v.29c0 .16 0 .37.02.46l.01.16l-.16.08c-.87.42-.88 2-.03 3.6l.14.27l.02.3l.01.29h-2Zm3.181-5v-.39h2.3l-.02.15l-.03.39l-.01.24H9.28Zm3.5.2l.03-.39l.02-.2h1.761l-.1.38l-.1.4h-1.63ZM2.74 15.006c-.24-.08-.31-.2-.39-.701l-.08-.51c-.04-.25.06-.47.26-.58c.07-.03.89-.03 6.1-.03h6.032l.11.06q.32.18.24.55c-.22 1.08-.24 1.14-.52 1.21c-.18.05-11.602.04-11.752 0m-.58-2.78c-.01-.03-.13-1-.15-1.26c-.08-.82.39-1.16 1.6-1.16h.67l.02.3l.08 1.83l.02.32H3.28c-.86 0-1.11 0-1.12-.03m3.47-.24l-.04-1.04l-.04-.96l-.02-.18H6.8l1.25.01l.01 1.22v1.22h-2.4zm3.651-.95v-1.23h1.3c.71 0 1.3.01 1.3.02c.01.01 0 .26-.02.56l-.06 1.2l-.03.67H9.28Zm3.72 1.21v-.28l.06-1.07l.05-.94v-.14h.61c1.321-.02 1.701.36 1.531 1.5l-.1.7l-.03.23zM7.1 8.045c-.44-.16-.9-1.24-.9-2.14c0-.57.04-.78.33-1.65c.23-.701.3-.981.36-1.461c.12-.85.96-1.1 1.22-.34c.1.28-.08 1.16-.39 2.02c-.46 1.26-.46 1.68.02 2.55c.35.64-.02 1.24-.62 1.02Zm3.13-.01c-.2-.08-.28-.18-.5-.62c-.54-1.03-.55-1.73-.09-3.1a7 7 0 0 0 .37-1.461q.1-.96.75-.8c.64.14.66.77.06 2.5c-.39 1.14-.38 1.62.05 2.45c.37.7 0 1.28-.64 1.03"/></svg>