<svg xmlns="http://www.w3.org/2000/svg" width="1em" height="1em" viewBox="0 0 24 24"><path fill="currentColor" d="M3.34 3.767L2.034 7.56h5.533l-3.106 9.148c1.33.4 2.733.469 4.114.45l3.26-9.598h5.817L16.45 3.767zm9.413 4.713l-2.926 8.612a23 23 0 0 0 4.565-.937l1.018-2.992l.836 2.272c1.17-.535 2.297-1.195 3.244-2.073L17.935 8.48q-2.593.002-5.182-.001zm5.667.033c.152.3.118.78.396.96c1.08.37 2.312 1.255 2.11 2.549c-.343 1.603-1.862 2.583-3.181 3.36c-3.372 1.798-7.27 2.577-11.076 2.347c-1.58-.165-3.375-.443-4.448-1.738c-.796-1.044-.104-2.43.748-3.197c.89-.868 1.978-1.5 3.096-2.024c.412-.905-1.11.322-1.503.412c-1.453.86-3.05 1.936-3.51 3.662c-.316 1.348.846 2.45 2 2.9c2.672 1.075 5.656.97 8.463.586c3.433-.555 6.914-1.604 9.683-3.78c1.018-.842 2.156-2.147 1.696-3.57c-.632-1.53-2.42-2.057-3.901-2.37a13 13 0 0 0-.572-.097zm1.857 7.373c-1.018.672-2.18 1.195-3.268 1.646l.992 2.7h3.663zm-6.704 2.66c-1.47.326-2.991.501-4.471.62l-.363 1.066h4.248zm-9.75.083l-.535 1.603h4.248l.35-1.067c-1.367-.027-2.748-.14-4.063-.536"/></svg>